<svg width="75" height="96" viewBox="0 0 75 96" fill="none" xmlns="http://www.w3.org/2000/svg">
<path fill-rule="evenodd" clip-rule="evenodd" d="M74.5326 52.4363C74.5342 52.4434 74.5359 52.4504 74.5366 52.4578C74.8398 54.3813 75.0013 56.3518 75 58.3599C75 81.6102 55.5355 96 37.5 96C16.8229 96 0 79.1142 0 58.3599C0 56.9095 0.0908203 55.4805 0.251068 54.0717C0.256409 54.006 0.265747 53.9417 0.276428 53.876C1.93777 39.895 11.2607 28.2504 23.9023 23.2933C23.7989 23.1852 23.6933 23.0763 23.5877 22.9673C23.4026 22.7763 23.2175 22.5853 23.0449 22.3993C18.4575 25.3711 12.1648 24.3309 7.42923 19.709C6.6373 18.9341 6.61859 17.662 7.3905 16.8658C8.16238 16.0709 9.43109 16.0535 10.223 16.827C13.8742 20.3885 17.7497 20.6607 20.3579 19.3149C16.899 15.0616 15.032 11.4115 14.6928 8.26813C14.3483 5.07916 16.5371 1.74005 19.785 0.500123C23.1731 -0.793395 26.6319 0.457276 29.0358 3.84595C32.954 9.37268 28.6525 16.1541 25.8881 19.5669C26.5879 20.3215 27.3517 21.1071 28.1517 21.906C31.1405 21.1325 34.2735 20.721 37.5013 20.721C56.1632 20.721 71.68 34.4755 74.5286 52.4149C74.5292 52.4222 74.5309 52.4293 74.5326 52.4363ZM69.9947 50.2125C66.3568 35.6015 53.1704 24.7424 37.5013 24.7424C35.4033 24.7424 33.3534 24.9462 31.3608 25.3188C36.5264 31.1967 51.7428 46.8292 69.9947 50.2125ZM18.6752 7.8338C18.925 10.1381 20.442 13.0281 23.2025 16.4677C25.2978 13.7412 27.9567 9.26007 25.7706 6.177C24.7623 4.75476 23.6151 4.02826 22.4052 4.02826C22.0125 4.02826 21.6133 4.10462 21.2086 4.25879C19.6621 4.84992 18.5256 6.45313 18.6752 7.8338ZM38.4295 37.9164C32.5988 32.8937 28.5497 28.2544 27.0339 26.4327C15.6784 30.1927 6.99118 39.8896 4.64343 51.8505C14.1373 50.171 30.9562 43.6684 38.4295 37.9164ZM4.00775 58.3612C4.00775 76.8984 19.0331 91.98 37.5013 91.98C53.6098 91.98 70.9949 79.1263 70.9962 58.3599C70.9962 57.0261 70.9095 55.7137 70.7585 54.4189C59.5192 52.7232 49.3656 46.671 41.6106 40.5397L41.6054 40.5452C41.6023 40.5486 41.5994 40.5519 41.5959 40.5545C33.6098 47.1147 14.3002 54.5261 4.09857 56.0167C4.04514 56.7928 4.00775 57.5717 4.00775 58.3612ZM20.8186 62.825C20.8186 64.6713 19.3275 66.168 17.488 66.168C15.6485 66.168 14.1573 64.6713 14.1573 62.825C14.1573 60.9786 15.6485 59.4818 17.488 59.4818C19.3275 59.4818 20.8186 60.9786 20.8186 62.825ZM60.2885 62.8236C60.2885 64.6692 58.7979 66.1653 56.9591 66.1653C55.1204 66.1653 53.6298 64.6692 53.6298 62.8236C53.6298 60.978 55.1204 59.4818 56.9591 59.4818C58.7979 59.4818 60.2885 60.978 60.2885 62.8236ZM54.4271 71.2726C53.4121 70.8343 52.2316 71.2981 51.7909 72.3155C50.1175 76.1801 45.3712 78.8583 39.4084 79.3046C32.2089 79.8395 25.5996 76.9937 22.5174 72.0501C21.9311 71.1091 20.6944 70.8222 19.7569 71.412C18.8194 72.0005 18.535 73.2418 19.1212 74.1827C22.683 79.8972 29.8331 83.389 37.7043 83.389C38.3667 83.389 39.0358 83.3636 39.7062 83.314C47.1581 82.755 53.1984 79.1532 55.4674 73.916C55.9068 72.9012 55.442 71.7163 54.4271 71.2726Z" fill="#00C4A1"/>
</svg>
