<svg width="235" height="190" viewBox="0 0 235 190" fill="none" xmlns="http://www.w3.org/2000/svg">
<path d="M73.849 147.54C114.635 147.54 147.698 114.512 147.698 73.7698C147.698 33.0278 114.635 0 73.849 0C33.0633 0 0 33.0278 0 73.7698C0 114.512 33.0633 147.54 73.849 147.54Z" transform="translate(43.651 42.4603)" fill="#FFBD49" fill-opacity="0.5"/>
<path d="M62.8289 125.523C97.5283 125.523 125.658 97.4237 125.658 62.7615C125.658 28.0993 97.5283 0 62.8289 0C28.1294 0 0 28.0993 0 62.7615C0 97.4237 28.1294 125.523 62.8289 125.523Z" transform="translate(54.671 53.4688)" fill="#FFBD49"/>
<path opacity="0.5" d="M15.4568 30.8804L6.86967 34.0256C3.00548 23.4462 0.715591 12.2949 0 0.57185L9.15956 0C9.73203 10.8653 11.8788 21.1588 15.4568 30.8804Z" transform="translate(0 123.379)" fill="white"/>
<path opacity="0.5" d="M15.1705 33.3108L6.01096 33.7397C5.43849 23.0173 3.43484 12.8668 0 3.14522L8.58709 0C12.3082 10.5794 14.5981 21.7306 15.1705 33.3108Z" transform="translate(219.686 77.9158)" fill="white"/>
<path opacity="0.5" d="M25.1888 28.45L17.0311 32.5959C12.5944 23.0173 6.86967 14.1535 0 6.29045L6.72655 0C14.1687 8.43491 20.4659 18.0135 25.1888 28.45Z" transform="translate(199.077 39.7443)" fill="white"/>
<path d="M32.0585 19.1573L26.1906 26.1625C18.4622 19.0143 9.58892 13.0098 0 8.43491L3.72107 0C13.8825 5.00376 23.4714 11.4372 32.0585 19.1573Z" transform="translate(164.443 11.1514)" fill="#FFBD49" fill-opacity="0.5"/>
<path d="M34.0621 6.43341L31.3429 15.1543C21.4677 11.7231 10.877 9.57863 0 9.14974L0.143116 0C12.0219 0.428894 23.3283 2.71633 34.0621 6.43341Z" transform="translate(122.223)" fill="#FFBD49"/>
<path d="M34.4915 9.14974C23.4714 9.57863 13.0238 11.7231 3.1486 15.1543L0 6.57637C10.5907 2.85929 22.0402 0.571859 33.919 0L34.4915 9.14974Z" transform="translate(78.2855)" fill="#FFBD49" fill-opacity="0.5"/>
<path opacity="0.5" d="M32.7741 8.29195C23.042 12.8668 14.0256 18.8713 6.15408 25.8766L0 19.1573C8.58709 11.4372 18.3191 5.00376 28.9099 0L32.7741 8.29195Z" transform="translate(38.785 10.8652)" fill="white"/>
<path opacity="0.5" d="M26.0475 6.14748C18.8916 14.0105 12.8806 22.8743 8.30085 32.5959L0 28.7359C5.00914 18.1565 11.4495 8.57788 19.1778 0L26.0475 6.14748Z" transform="translate(11.1633 38.3146)" fill="white"/>
<path opacity="0.5" d="M15.1705 3.14522C11.7357 13.0098 9.58892 23.4462 9.01644 34.3115L0 33.7397C0.572473 22.0166 2.86236 10.7223 6.58344 0L15.1705 3.14522Z" transform="translate(0 78.0586)" fill="white"/>
<path opacity="0.5" d="M15.0274 0.285925C14.4549 11.7231 12.3082 22.8743 8.58709 33.3108L0 30.3085C3.29172 20.7299 5.29538 10.5794 5.86785 0L15.0274 0.285925Z" transform="translate(219.973 122.664)" fill="white"/>
<path d="M35.0203 26.472C34.8149 25.2107 34.4043 24.2573 33.7883 23.612C33.2016 22.9667 32.3509 22.644 31.2363 22.644C29.5349 22.644 28.3176 23.436 27.5843 25.02C26.8803 26.5747 26.5576 28.98 26.6163 32.236C27.1149 31.0333 27.9656 30.0947 29.1683 29.42C30.4003 28.716 31.8229 28.364 33.4363 28.364C36.3696 28.364 38.6869 29.2587 40.3883 31.048C42.0896 32.808 42.9403 35.3453 42.9403 38.66C42.9403 40.7427 42.5149 42.5907 41.6643 44.204C40.8136 45.8173 39.5523 47.0787 37.8803 47.988C36.2376 48.868 34.2576 49.308 31.9403 49.308C27.3936 49.308 24.2549 47.9 22.5243 45.084C20.7936 42.268 19.9283 38.3667 19.9283 33.38C19.9283 27.6307 20.8523 23.4067 22.7003 20.708C24.5483 17.98 27.5549 16.616 31.7203 16.616C35.0056 16.616 37.4989 17.5547 39.2003 19.432C40.9016 21.28 41.8549 23.6267 42.0603 26.472H35.0203ZM27.1883 38.308C27.1883 39.6573 27.5696 40.7573 28.3323 41.608C29.0949 42.4293 30.2096 42.84 31.6763 42.84C32.9963 42.84 34.0229 42.4733 34.7563 41.74C35.5189 41.0067 35.9003 39.936 35.9003 38.528C35.9003 37.12 35.5189 36.0493 34.7563 35.316C33.9936 34.5533 32.9523 34.172 31.6323 34.172C30.3709 34.172 29.3149 34.5387 28.4643 35.272C27.6136 35.976 27.1883 36.988 27.1883 38.308ZM54.6475 41.476V49H46.8595V41.476H54.6475ZM81.3322 23.744H67.3402V30.036C67.9562 29.332 68.8069 28.7893 69.8922 28.408C71.0069 27.9973 72.2095 27.792 73.5002 27.792C75.5829 27.792 77.3282 28.2613 78.7362 29.2C80.1442 30.1093 81.1855 31.3413 81.8602 32.896C82.5349 34.4507 82.8722 36.1667 82.8722 38.044C82.8722 41.4467 81.9189 44.1453 80.0122 46.14C78.1055 48.1053 75.4215 49.088 71.9602 49.088C69.6135 49.088 67.5749 48.6773 65.8442 47.856C64.1135 47.0053 62.7789 45.832 61.8402 44.336C60.9015 42.84 60.4029 41.1093 60.3442 39.144H67.6922C67.8389 40.1413 68.2349 40.9627 68.8802 41.608C69.5549 42.2533 70.4642 42.576 71.6082 42.576C72.9282 42.576 73.9109 42.1507 74.5562 41.3C75.2309 40.4493 75.5682 39.32 75.5682 37.912C75.5682 36.5627 75.2162 35.5213 74.5122 34.788C73.8082 34.0547 72.8255 33.688 71.5642 33.688C70.5962 33.688 69.7895 33.908 69.1442 34.348C68.4989 34.7587 68.0589 35.3013 67.8242 35.976H60.5202V17.144H81.3322V23.744Z" transform="translate(65.5814 79.7126)" fill="#43B97C"/>
</svg>
